<?xml version="1.0" encoding="UTF-8"?>
<svg width="175px" height="175px" viewBox="0 0 175 175" version="1.1" xmlns="http://www.w3.org/2000/svg" xmlns:xlink="http://www.w3.org/1999/xlink">
    <!-- Generator: Sketch 55.1 (78136) - https://sketchapp.com -->
    <title>coding</title>
    <desc>Created with Sketch.</desc>
    <g id="Page-1" stroke="none" stroke-width="1" fill="none" fill-rule="evenodd">
        <g id="home-v3" transform="translate(-613.000000, -1874.000000)" fill-rule="nonzero">
            <g id="coding" transform="translate(613.000000, 1874.000000)">
                <path d="M58.4693617,75.7996479 L25.9383511,97.1771714 C25.092766,97.7325704 24.5744681,98.7382042 24.5744681,99.8239437 C24.5744681,100.909683 25.092766,101.915317 25.9379787,102.470716 L58.4689894,123.848239 C58.9169149,124.142782 59.4091489,124.282864 59.8954255,124.282864 C60.8471277,124.282864 61.775,123.74554 62.2970213,122.77811 C63.086383,121.31608 62.6518617,119.425176 61.3270745,118.554695 L32.8240426,99.8239437 L61.3270745,81.0931925 C62.652234,80.2227113 63.0867553,78.3318075 62.2973936,76.869777 C61.5080319,75.4077465 59.7941489,74.9283451 58.4693617,75.7996479 Z" id="Path" fill="#FFFFFF"></path>
                <path d="M115.104574,124.282864 C115.590851,124.282864 116.083085,124.142782 116.531011,123.848239 L149.062021,102.470716 C149.907606,101.914906 150.425532,100.909683 150.425532,99.8239437 C150.425532,98.7382042 149.907234,97.7325704 149.062021,97.1771714 L116.531011,75.7996479 C115.206223,74.9287559 113.491596,75.4077465 112.702979,76.869777 C111.913617,78.3318075 112.348138,80.2227113 113.672926,81.0931925 L142.175957,99.8239437 L113.672926,118.554695 C112.347766,119.425176 111.913245,121.31608 112.702979,122.77811 C113.225372,123.745951 114.152872,124.282864 115.104574,124.282864 Z" id="Path" fill="#FFFFFF"></path>
                <path d="M72.1696277,119.48392 C71.3098936,120.896244 71.6505851,122.810563 72.9310638,123.759507 C73.4091489,124.113615 73.9501596,124.282864 74.4855851,124.282864 C75.3847872,124.282864 76.2676064,123.804284 76.806383,122.919014 L102.830372,80.1639671 C103.690106,78.7516432 103.349415,76.8373239 102.068936,75.8883803 C100.787713,74.9398474 99.0529787,75.3165493 98.193617,76.7288732 L72.1696277,119.48392 Z" id="Path" fill="#FFFFFF"></path>
                <path d="M172.207447,0.205399061 L2.79255319,0.205399061 C1.24994681,0.205399061 0,1.58485915 0,3.28638498 L0,171.713615 C0,173.415141 1.24994681,174.794601 2.79255319,174.794601 L172.207447,174.794601 C173.750053,174.794601 175,173.415141 175,171.713615 L175,138.849765 C175,137.148239 173.750053,135.768779 172.207447,135.768779 C170.66484,135.768779 169.414894,137.148239 169.414894,138.849765 L169.414894,168.632629 L5.58510638,168.632629 L5.58510638,31.0152582 L169.414894,31.0152582 L169.414894,126.525822 C169.414894,128.227347 170.66484,129.606808 172.207447,129.606808 C173.750053,129.606808 175,128.227347 175,126.525822 L175,3.28638498 C175,1.58485915 173.750053,0.205399061 172.207447,0.205399061 Z M5.58510638,6.36737089 L108.909574,6.36737089 L108.909574,24.8532864 L5.58510638,24.8532864 L5.58510638,6.36737089 Z M114.494681,24.8532864 L114.494681,6.36737089 L169.414894,6.36737089 L169.414894,24.8532864 L114.494681,24.8532864 Z" id="Shape" fill="#FFFFFF"></path>
                <path d="M142.047872,12.3239437 C140.405479,12.3239437 139.069149,13.7982981 139.069149,15.6103286 C139.069149,17.4223592 140.405479,18.8967136 142.047872,18.8967136 C143.690266,18.8967136 145.026596,17.4223592 145.026596,15.6103286 C145.026596,13.7982981 143.690266,12.3239437 142.047872,12.3239437 Z" id="Path" fill="#FFE66D"></path>
                <path d="M126.781915,12.3239437 C125.139521,12.3239437 123.803191,13.7982981 123.803191,15.6103286 C123.803191,17.4223592 125.139521,18.8967136 126.781915,18.8967136 C128.424309,18.8967136 129.760638,17.4223592 129.760638,15.6103286 C129.760638,13.7982981 128.424309,12.3239437 126.781915,12.3239437 Z" id="Path" fill="#3DDC97"></path>
                <path d="M157.31383,12.3239437 C155.671436,12.3239437 154.335106,13.7982981 154.335106,15.6103286 C154.335106,17.4223592 155.671436,18.8967136 157.31383,18.8967136 C158.956223,18.8967136 160.292553,17.4223592 160.292553,15.6103286 C160.292553,13.7982981 158.956223,12.3239437 157.31383,12.3239437 Z" id="Path" fill="#FC3B3B"></path>
            </g>
        </g>
    </g>
</svg>