<?xml version="1.0" encoding="UTF-8"?>
<svg width="175px" height="175px" viewBox="0 0 175 175" version="1.1" xmlns="http://www.w3.org/2000/svg" xmlns:xlink="http://www.w3.org/1999/xlink">
    <!-- Generator: Sketch 55.1 (78136) - https://sketchapp.com -->
    <title>database</title>
    <desc>Created with Sketch.</desc>
    <g id="Page-1" stroke="none" stroke-width="1" fill="none" fill-rule="evenodd">
        <g id="home-v3" transform="translate(-1007.000000, -1874.000000)" fill="#FFFFFF" fill-rule="nonzero">
            <g id="database" transform="translate(1007.000000, 1874.000000)">
                <path d="M30.625,17.8645833 C23.38875,17.8645833 17.5,23.7533333 17.5,30.9895833 C17.5,38.2258333 23.38875,44.1145833 30.625,44.1145833 C37.86125,44.1145833 43.75,38.2258333 43.75,30.9895833 C43.75,23.7533333 37.86125,17.8645833 30.625,17.8645833 Z M30.625,38.28125 C26.6058333,38.28125 23.3333333,35.0116667 23.3333333,30.9895833 C23.3333333,26.9675 26.6058333,23.6979167 30.625,23.6979167 C34.6441667,23.6979167 37.9166667,26.9675 37.9166667,30.9895833 C37.9166667,35.0116667 34.6441667,38.28125 30.625,38.28125 Z" id="Shape"></path>
                <circle id="Oval" cx="145.833333" cy="26.6145833" r="2.91666667"></circle>
                <circle id="Oval" cx="134.166667" cy="26.6145833" r="2.91666667"></circle>
                <circle id="Oval" cx="151.666667" cy="35.3645833" r="2.91666667"></circle>
                <circle id="Oval" cx="140" cy="35.3645833" r="2.91666667"></circle>
                <circle id="Oval" cx="122.5" cy="26.6145833" r="2.91666667"></circle>
                <circle id="Oval" cx="128.333333" cy="35.3645833" r="2.91666667"></circle>
                <circle id="Oval" cx="110.833333" cy="26.6145833" r="2.91666667"></circle>
                <circle id="Oval" cx="116.666667" cy="35.3645833" r="2.91666667"></circle>
                <circle id="Oval" cx="99.1666667" cy="26.6145833" r="2.91666667"></circle>
                <circle id="Oval" cx="105" cy="35.3645833" r="2.91666667"></circle>
                <path d="M30.625,73.28125 C23.38875,73.28125 17.5,79.17 17.5,86.40625 C17.5,93.6425 23.38875,99.53125 30.625,99.53125 C37.86125,99.53125 43.75,93.6425 43.75,86.40625 C43.75,79.17 37.86125,73.28125 30.625,73.28125 Z M30.625,93.6979167 C26.6058333,93.6979167 23.3333333,90.4283333 23.3333333,86.40625 C23.3333333,82.3841667 26.6058333,79.1145833 30.625,79.1145833 C34.6441667,79.1145833 37.9166667,82.3841667 37.9166667,86.40625 C37.9166667,90.4283333 34.6441667,93.6979167 30.625,93.6979167 Z" id="Shape"></path>
                <path d="M30.625,128.697917 C23.38875,128.697917 17.5,134.586667 17.5,141.822917 C17.5,149.059167 23.38875,154.947917 30.625,154.947917 C37.86125,154.947917 43.75,149.059167 43.75,141.822917 C43.75,134.586667 37.86125,128.697917 30.625,128.697917 Z M30.625,149.114583 C26.6058333,149.114583 23.3333333,145.845 23.3333333,141.822917 C23.3333333,137.800833 26.6058333,134.53125 30.625,134.53125 C34.6441667,134.53125 37.9166667,137.800833 37.9166667,141.822917 C37.9166667,145.845 34.6441667,149.114583 30.625,149.114583 Z" id="Shape"></path>
                <path d="M175,48.1745833 L175,13.8045833 C175,6.39333333 168.97125,0.364583333 161.56,0.364583333 L13.44,0.364583333 C6.02875,0.364583333 0,6.39333333 0,13.8045833 L0,48.1716667 C0,52.45625 2.05041667,56.2333333 5.18291667,58.695 C2.05041667,61.1595833 0,64.9395833 0,69.22125 L0,103.588333 C0,107.872917 2.05041667,111.65 5.18291667,114.111667 C2.05041667,116.57625 0,120.35625 0,124.637917 L0,159.005 C0,166.41625 6.02875,172.445 13.44,172.445 L94.7420833,172.445 C102.564583,173.885833 111.139583,174.6325 119.583333,174.6325 C144.876667,174.6325 171.546667,168.072917 174.69375,155.519583 C174.889167,155.131667 175,154.688333 175,154.21875 L175,127.96875 L175,126.875 L175,125.78125 L175,101.71875 L175,100.625 L175,99.53125 L175,74.375 L175,73.28125 C175,72.84375 174.892083,72.4383333 174.72,72.0679167 C173.707917,67.7979167 169.913333,64.2016667 164.330833,61.32 C170.415,60.0395833 175,54.635 175,48.1745833 Z M5.83333333,103.59125 L5.83333333,69.22125 C5.83333333,65.0270833 9.24583333,61.6145833 13.44,61.6145833 L74.2816667,61.6145833 C69.0054167,64.4466667 65.42375,67.9408333 64.4466667,72.0679167 C64.2745833,72.44125 64.1666667,72.84375 64.1666667,73.28125 L64.1666667,74.375 L64.1666667,99.53125 L64.1666667,100.625 L64.1666667,101.71875 L64.1666667,111.197917 L13.44,111.197917 C9.24583333,111.197917 5.83333333,107.785417 5.83333333,103.59125 Z M71.8258333,85.6916667 C71.9570833,85.77625 72.0970833,85.8608333 72.23125,85.9454167 C72.7445833,86.26625 73.2783333,86.58125 73.8354167,86.8904167 C73.9958333,86.9779167 74.1504167,87.0683333 74.3108333,87.1529167 C74.9904167,87.5175 75.69625,87.8733333 76.43125,88.2145833 C76.5479167,88.27 76.6733333,88.3225 76.79,88.375 C77.4345833,88.6695833 78.0966667,88.9525 78.7791667,89.2295833 C78.9804167,89.31125 79.17875,89.3929167 79.38,89.4716667 C80.185,89.7866667 81.0045833,90.0958333 81.8533333,90.3875 C81.9,90.4020833 81.9466667,90.4166667 81.9933333,90.4341667 C82.8041667,90.71125 83.6383333,90.9766667 84.4870833,91.2333333 C84.7145833,91.3033333 84.945,91.3704167 85.1754167,91.4375 C86.0154167,91.6825 86.8670833,91.9216667 87.7391667,92.1491667 C87.8091667,92.1666667 87.87625,92.1870833 87.94625,92.2045833 C88.8854167,92.4466667 89.845,92.67125 90.8191667,92.89 C91.0641667,92.9454167 91.3120833,92.9979167 91.5570833,93.0504167 C92.39125,93.23125 93.2341667,93.4033333 94.0858333,93.5666667 C94.255,93.59875 94.4241667,93.63375 94.5933333,93.6658333 C95.59375,93.8525 96.6058333,94.0245833 97.6295833,94.1879167 C97.8716667,94.2258333 98.1195833,94.26375 98.3616667,94.3016667 C99.2104167,94.4329167 100.065,94.5554167 100.928333,94.6691667 C101.164583,94.70125 101.397917,94.7333333 101.637083,94.7625 C102.68125,94.89375 103.73125,95.01625 104.79,95.1270833 C105.002917,95.1504167 105.21875,95.1679167 105.431667,95.1883333 C106.32125,95.2758333 107.216667,95.3545833 108.112083,95.4275 C108.383333,95.4479167 108.651667,95.47125 108.922917,95.4916667 C109.993333,95.5704167 111.069583,95.6404167 112.145833,95.6958333 C112.2975,95.7045833 112.452083,95.7075 112.606667,95.71625 C113.554583,95.7629167 114.505417,95.7979167 115.45625,95.8241667 C115.742083,95.8329167 116.027917,95.8416667 116.316667,95.8475 C117.404583,95.8708333 118.4925,95.8883333 119.5775,95.8883333 C120.6625,95.8883333 121.750417,95.8708333 122.838333,95.8475 C123.124167,95.8416667 123.41,95.8329167 123.69875,95.8241667 C124.649583,95.7979167 125.5975,95.7629167 126.548333,95.71625 C126.702917,95.7075 126.854583,95.7045833 127.009167,95.6958333 C128.085417,95.6404167 129.161667,95.5704167 130.232083,95.4916667 C130.503333,95.47125 130.771667,95.4508333 131.042917,95.4275 C131.94125,95.3575 132.83375,95.2758333 133.723333,95.1883333 C133.93625,95.1679167 134.152083,95.1475 134.365,95.1270833 C135.42375,95.01625 136.47375,94.8966667 137.517917,94.7625 C137.754167,94.7333333 137.990417,94.70125 138.226667,94.6691667 C139.087083,94.5554167 139.944583,94.4329167 140.793333,94.3016667 C141.038333,94.26375 141.283333,94.22875 141.525417,94.1879167 C142.549167,94.0245833 143.56125,93.8525 144.561667,93.6658333 C144.73375,93.63375 144.9,93.59875 145.069167,93.5666667 C145.92375,93.4033333 146.766667,93.23125 147.597917,93.0504167 C147.845833,92.995 148.090833,92.9425 148.335833,92.89 C149.307083,92.67125 150.269583,92.4466667 151.20875,92.2045833 C151.27875,92.1870833 151.345833,92.1666667 151.415833,92.1491667 C152.287917,91.9245833 153.139583,91.6854167 153.979583,91.4375 C154.21,91.3704167 154.440417,91.3033333 154.667917,91.2333333 C155.516667,90.9766667 156.350833,90.71125 157.161667,90.4341667 C157.208333,90.4195833 157.255,90.405 157.301667,90.3875 C158.150417,90.0929167 158.972917,89.7866667 159.775,89.4716667 C159.979167,89.3929167 160.1775,89.31125 160.375833,89.2295833 C161.058333,88.9525 161.720417,88.6695833 162.365,88.375 C162.484583,88.3195833 162.607083,88.27 162.72375,88.2145833 C163.45875,87.8733333 164.161667,87.5175 164.844167,87.1529167 C165.0075,87.0654167 165.162083,86.9779167 165.319583,86.8904167 C165.87375,86.5841667 166.4075,86.2691667 166.92375,85.9454167 C167.057917,85.8608333 167.197917,85.7791667 167.329167,85.6916667 C167.932917,85.3008333 168.504583,84.8983333 169.047083,84.4841667 C169.082083,84.4579167 169.122917,84.4345833 169.157917,84.4083333 L169.157917,98.9566667 C169.087917,99.295 169.04125,99.6391667 169.096667,99.98625 C169.1375,100.199167 169.166667,100.409167 169.166667,100.625 C169.166667,100.945833 169.07625,101.2725 168.9975,101.59625 C168.93625,101.847083 168.8575,102.100833 168.7525,102.351667 C168.659167,102.570417 168.5425,102.792083 168.414167,103.010833 C168.28875,103.229583 168.151667,103.45125 167.994167,103.67 C167.769583,103.973333 167.515833,104.276667 167.227083,104.58 C167.119167,104.696667 167.01125,104.813333 166.894583,104.93 C160.72,110.903333 142.499583,116.299167 119.58625,116.299167 C96.6875,116.299167 78.4758333,110.909167 72.2895833,104.93875 C72.16125,104.810417 72.0445833,104.685 71.9279167,104.556667 C71.65375,104.265 71.4058333,103.973333 71.19,103.681667 C71.02375,103.45125 70.8779167,103.220833 70.7466667,102.9875 C70.6270833,102.780417 70.51625,102.573333 70.4258333,102.363333 C70.3120833,102.097917 70.2333333,101.835417 70.1691667,101.572917 C70.0904167,101.257917 70,100.94 70,100.625 C70,100.417917 70.02625,100.210833 70.06125,100.006667 C70.1225,99.6275 70.0845833,99.2483333 70,98.88375 L70,84.4054167 C70.035,84.4316667 70.0758333,84.455 70.1108333,84.48125 C70.6504167,84.8954167 71.2220833,85.2979167 71.8258333,85.6916667 Z M168.749583,128.601667 C168.65625,128.820417 168.539583,129.042083 168.41125,129.260833 C168.285833,129.479583 168.14875,129.70125 167.99125,129.92 C167.766667,130.223333 167.512917,130.526667 167.224167,130.83 C167.11625,130.946667 167.008333,131.063333 166.891667,131.18 C160.717083,137.153333 142.496667,142.549167 119.583333,142.549167 C96.6845833,142.549167 78.4729167,137.159167 72.2866667,131.18875 C72.1583333,131.060417 72.0416667,130.935 71.925,130.806667 C71.6508333,130.515 71.4029167,130.223333 71.1870833,129.931667 C71.0208333,129.70125 70.875,129.470833 70.74375,129.2375 C70.6241667,129.030417 70.5133333,128.823333 70.4229167,128.613333 C70.3091667,128.347917 70.2304167,128.085417 70.16625,127.822917 C70.0991667,127.54875 70.0291667,127.271667 70.0204167,126.9975 L70.0204167,126.6475 C70.0320833,126.51625 70.0379167,126.385 70.0583333,126.25375 C70.0991667,126.002917 70.04375,125.757917 70.0175,125.51 L70,111.197917 L70,110.655417 C70.1166667,110.745833 70.25375,110.830417 70.37625,110.917917 C70.74375,111.192083 71.12875,111.460417 71.5225,111.725833 C71.8433333,111.93875 72.1758333,112.14875 72.5141667,112.35875 C73.03625,112.679583 73.56125,112.9975 74.12125,113.30375 C74.1270833,113.306667 74.1329167,113.309583 74.1358333,113.3125 C80.22,116.62875 88.585,119.023333 97.83375,120.472917 C97.90375,120.484583 97.97375,120.493333 98.04375,120.505 C101.0275,120.96875 104.09,121.330417 107.205,121.595833 C107.867083,121.65125 108.52625,121.709583 109.194167,121.75625 C109.844583,121.802917 110.495,121.84375 111.148333,121.87875 C112.029167,121.928333 112.91,121.972083 113.790833,122.007083 C114.304167,122.0275 114.8175,122.050833 115.33375,122.065417 C116.754167,122.10625 118.171667,122.135417 119.58625,122.135417 C120.997917,122.135417 122.415417,122.109167 123.83,122.068333 C124.349167,122.05375 124.865417,122.030417 125.384583,122.01 C126.259583,121.975 127.131667,121.934167 128.00375,121.884583 C128.662917,121.846667 129.319167,121.805833 129.975417,121.759167 C130.631667,121.7125 131.279167,121.657083 131.9325,121.601667 C135.076667,121.33625 138.168333,120.96875 141.178333,120.502083 C141.222083,120.49625 141.26875,120.4875 141.3125,120.481667 C151.41875,118.900833 160.4575,116.185417 166.632083,112.37625 C166.9675,112.169167 167.3,111.962083 167.617917,111.749167 C168.011667,111.486667 168.396667,111.218333 168.76125,110.944167 C168.8925,110.847917 169.04125,110.7575 169.169583,110.658333 L169.169583,125.206667 C169.099583,125.545 169.052917,125.889167 169.108333,126.23625 C169.1375,126.449167 169.166667,126.659167 169.166667,126.875 C169.166667,127.195833 169.07625,127.5225 168.9975,127.84625 C168.933333,128.097083 168.8575,128.350833 168.749583,128.601667 Z M13.44,166.614583 C9.24583333,166.614583 5.83333333,163.202083 5.83333333,159.007917 L5.83333333,124.637917 C5.83333333,120.44375 9.24583333,117.03125 13.44,117.03125 L64.1666667,117.03125 L64.1666667,125.78125 L64.1666667,126.875 L64.1666667,127.96875 L64.1666667,154.21875 L64.1666667,157.135417 L65.03,157.135417 C65.0766667,157.243333 65.14375,157.348333 65.19625,157.45625 C65.2983333,157.675 65.4120833,157.887917 65.52875,158.10375 C65.7679167,158.535417 66.0391667,158.96125 66.3395833,159.38125 C66.6370833,159.804167 66.9725,160.2125 67.3283333,160.617917 C67.5091667,160.822083 67.69,161.023333 67.8854167,161.224583 C69.0025,162.376667 70.3441667,163.455833 71.8929167,164.465 C71.9454167,164.5 72.0008333,164.535 72.05625,164.57 C73.17625,165.290417 74.3866667,165.972917 75.69625,166.6175 L13.44,166.6175 L13.44,166.614583 Z M169.166667,153.472083 C169.143333,153.5625 169.122917,153.655833 169.108333,153.74625 C167.915417,161.0175 147.729167,168.802083 119.583333,168.802083 C110.602917,168.802083 102.447917,168.005833 95.445,166.690417 L95.4479167,166.667083 C80.9433333,163.9225 72.9166667,159.287917 70.6708333,155.379583 C70.6679167,155.376667 70.665,155.37375 70.665,155.367917 C70.5629167,155.187083 70.49,155.009167 70.41125,154.834167 C70.2595833,154.469583 70.1166667,154.107917 70.0583333,153.74625 L70.035,136.931667 C70.14,137.013333 70.2654167,137.089167 70.3733333,137.170833 C70.7408333,137.445 71.1258333,137.713333 71.5195833,137.97875 C71.8404167,138.191667 72.1729167,138.401667 72.51125,138.611667 C73.0333333,138.9325 73.5583333,139.250417 74.1183333,139.556667 C74.1241667,139.559583 74.13,139.5625 74.1329167,139.565417 C80.2170833,142.881667 88.5820833,145.27625 97.8308333,146.725833 C97.9008333,146.7375 97.9708333,146.74625 98.0408333,146.757917 C101.024583,147.221667 104.087083,147.583333 107.202083,147.84875 C107.864167,147.904167 108.523333,147.9625 109.19125,148.009167 C109.841667,148.055833 110.492083,148.096667 111.145417,148.131667 C112.02625,148.18125 112.907083,148.225 113.787917,148.26 C114.30125,148.280417 114.814583,148.30375 115.330833,148.318333 C116.75125,148.359167 118.16875,148.388333 119.583333,148.388333 C120.995,148.388333 122.4125,148.362083 123.827083,148.32125 C124.34625,148.306667 124.8625,148.283333 125.381667,148.262917 C126.256667,148.227917 127.12875,148.187083 128.000833,148.1375 C128.66,148.099583 129.31625,148.05875 129.9725,148.012083 C130.62875,147.965417 131.27625,147.91 131.929583,147.854583 C135.07375,147.589167 138.165417,147.221667 141.175417,146.755 C141.219167,146.749167 141.265833,146.740417 141.309583,146.734583 C151.415833,145.15375 160.454583,142.438333 166.629167,138.629167 C166.964583,138.422083 167.297083,138.215 167.615,138.002083 C168.00875,137.739583 168.39375,137.47125 168.758333,137.197083 C168.889583,137.100833 169.038333,137.010417 169.166667,136.91125 L169.166667,153.472083 L169.166667,153.472083 Z M169.166667,74.375 C169.166667,81.7745833 147.959583,90.0520833 119.583333,90.0520833 C91.2041667,90.0520833 70,81.7745833 70,74.375 C70,74.0016667 70.0904167,73.6225 70.1983333,73.2433333 C70.315,72.8670833 70.4725,72.4820833 70.7058333,72.0854167 C70.7145833,72.0679167 70.7233333,72.0504167 70.7320833,72.0329167 C71.7033333,70.41125 73.6604167,68.6670833 76.6733333,66.9841667 C76.8016667,66.9141667 76.9329167,66.8441667 77.0641667,66.7741667 C77.5804167,66.4941667 78.1258333,66.2170833 78.7004167,65.9429167 C79.3683333,65.6308333 80.05375,65.31875 80.78875,65.0183333 C80.9316667,64.9570833 81.0804167,64.89875 81.2291667,64.8404167 C84.6183333,63.49 88.7016667,62.29125 93.2983333,61.31125 C94.73625,61.0079167 96.2004167,60.7220833 97.7054167,60.47125 C98.105,60.4041667 98.4958333,60.3341667 98.90125,60.27 C111.959167,58.2575 127.192917,58.2575 140.250833,60.27 C140.662083,60.3341667 141.05875,60.4070833 141.464167,60.4741667 C142.960417,60.7220833 144.415833,61.005 145.842083,61.3083333 C160.060833,64.3358333 169.166667,69.53625 169.166667,74.375 Z M169.166667,48.1745833 C169.166667,52.36875 165.754167,55.78125 161.56,55.78125 L148.055833,55.78125 C147.886667,55.7433333 147.7,55.72 147.530833,55.6820833 C145.6175,55.2679167 143.64875,54.8975 141.63625,54.5766667 C141.440833,54.5475 141.245417,54.5154167 141.05,54.48625 C134.16375,53.4158333 126.81375,52.8645833 119.583333,52.8645833 C112.352917,52.8645833 105.00875,53.4158333 98.1225,54.48625 C97.92125,54.5154167 97.7229167,54.5475 97.5216667,54.5766667 C95.515,54.8975 93.5520833,55.2679167 91.6445833,55.6791667 C91.4725,55.7170833 91.28,55.7404167 91.1079167,55.7783333 L13.44,55.7783333 C9.24583333,55.78125 5.83333333,52.36875 5.83333333,48.1745833 L5.83333333,13.8045833 C5.83333333,9.61041667 9.24583333,6.19791667 13.44,6.19791667 L161.557083,6.19791667 C165.754167,6.19791667 169.166667,9.61041667 169.166667,13.8045833 L169.166667,48.1745833 Z" id="Shape"></path>
            </g>
        </g>
    </g>
</svg>