<?xml version="1.0" encoding="UTF-8"?>
<svg width="267px" height="264px" viewBox="0 0 267 264" version="1.1" xmlns="http://www.w3.org/2000/svg" xmlns:xlink="http://www.w3.org/1999/xlink">
    <!-- Generator: Sketch 55.1 (78136) - https://sketchapp.com -->
    <title>sketch</title>
    <desc>Created with Sketch.</desc>
    <g id="Page-1" stroke="none" stroke-width="1" fill="none" fill-rule="evenodd" opacity="1">
        <g id="home-v3" transform="translate(-164.000000, -1073.000000)">
            <g id="sketch" transform="translate(182.000000, 1091.000000)">
                <path d="M18.4633625,56.4288123 C42.5289391,25.3472525 39.8946993,-37.2845003 0.278466948,84.7463786 C-0.0999979887,85.9121737 -0.0855766317,82.2396898 0.278466948,81.0693112 C1.69288635,76.5220362 3.64372961,72.1548296 5.55215577,67.7917801 C9.7069948,58.2929748 13.7018088,48.704596 18.4633625,39.4949491 C22.3589012,31.960321 26.8717312,24.7507201 31.4851577,17.6329861 C34.2232334,13.4086 37.1856232,9.30651112 40.4912082,5.50972241 C42.1458025,3.60925854 46.7765234,-1.82584551 46.2763688,0.643828656 C38.72705,37.9210225 28.7365801,74.6702328 19.0370403,111.446588 C18.0570873,115.162136 18.661886,103.537186 20.0807192,99.9661202 C28.1348188,79.6947289 37.6829538,60.0372893 47.2509299,40.4349513 C51.7308626,31.2567141 56.774225,22.3427847 62.1942002,13.6863592 C62.6560073,12.9487915 64.279979,11.9010497 64.6133235,12.7048863 C65.4835115,14.8032825 65.1303455,17.3078485 64.6133235,19.5199023 C62.0774693,30.3694335 58.9156513,41.073781 55.5035963,51.6804188 C46.1812625,80.6596172 35.6295747,109.235618 26.4188223,138.250475 C24.8613035,143.156826 24.7805255,148.452461 23.2255795,153.359628 C22.71893,154.958535 22.6153457,149.890161 23.2255795,148.327851 C26.2065825,140.69594 30.0794946,133.436615 33.8489868,126.16177 C39.5516704,115.156007 46.010977,104.55079 51.632999,93.503605 C62.8582706,71.446123 72.9522417,48.8198548 84.3810169,26.8671254 C85.7564359,24.2251799 87.0205235,20.3741229 89.9588241,19.8862267 C91.9498035,19.5556303 90.457036,23.9851662 89.9588241,25.9409467 C87.558556,35.3634392 84.3632839,44.5677493 81.319098,53.8023355 C63.3278707,108.379009 45.4536209,162.997197 26.8542645,217.36963 C26.3852253,218.740796 26.400451,214.3984 26.8542645,213.02212 C29.4568237,205.12934 32.7750079,197.488644 35.9432564,189.805448 C44.1202541,169.975731 51.6369725,149.840594 60.8878736,130.488545 C71.9609056,107.324762 84.1478206,84.6880422 96.8567814,62.3798556 C103.685266,50.3937369 106.472482,32.3962624 119.444481,27.7034509 C128.651756,24.3725838 115.939281,46.9980787 113.30682,56.4288123 C106.281245,81.5977792 97.1450489,106.158809 90.4910312,131.428547 C85.4852968,150.438655 71.2347656,187.882538 66.7490638,207.022027 C65.6669444,211.63919 59.3800185,224.317008 62.1942002,220.5 C66.0067569,215.328849 66.9804852,208.559769 69.8524535,202.812753 C88.4718877,165.553919 120.117128,111.122891 138.265261,73.6322349 C142.99618,63.8590385 142.544117,45.0479557 151.87477,39.4949491 C158.952924,35.2824855 149.947283,59.8961886 147.92793,67.8816332 C134.436829,121.23162 117.796211,173.740469 103.60268,226.907888 C101.598645,234.414784 104.784764,209.932898 107.894936,202.812753 C134.641458,141.581694 165.499793,82.7489777 193.144801,21.9182903 C194.982488,17.8746029 196.467897,13.329629 199.766287,10.3548808 C201.150402,9.10657675 200.184511,14.1301619 199.766287,15.9465116 C198.028659,23.4930516 195.540268,30.8472058 193.338331,38.2715639 C175.843918,97.2581664 148.984356,154.215743 140.677472,215.178596 C137.248437,240.343722 166.60282,171.463995 178.263737,148.901529 C190.465683,125.292236 200.006473,100.36947 212.214405,76.7632717 C216.125441,69.2005908 220.186866,49.9032073 226.514879,55.5993986 C233.870942,62.2209936 224.278183,75.4135558 221.144426,84.8016729 C206.677918,128.140468 189.179988,170.411222 173.826374,213.443739 C172.814833,216.278845 169.358904,223.58198 172.084605,222.304642 C175.633667,220.641454 175.247637,215.09883 177.351382,211.791823 C183.906445,201.487515 191.492545,191.862291 198.017607,181.538958 C204.941702,170.584313 207.52347,156.052117 217.674712,147.996086 C222.359673,144.278098 218.284537,159.989245 217.674712,165.939069 C216.708079,175.370114 214.926177,184.712563 212.960877,193.987076 C210.780373,204.277162 198.027723,216.93584 205.247329,224.58553 C211.351473,231.053306 217.59974,211.765594 223.287078,204.928425 C226.098576,201.548515 228.217481,197.648016 230.682683,194.007811 C232.326151,191.581008 161.586378,145.721342 18.4633625,56.4288123 Z" id="Path-6-Copy-4" stroke="#FFE66D" stroke-width="35"></path>
                <path d="M192.423992,148.902585 C191.470235,148.504948 190.372463,148.724605 189.642201,149.45873 L161.74753,177.514004 C161.017607,178.248471 160.799208,179.352563 161.194568,180.311811 C161.58925,181.271401 162.520589,181.896552 163.552807,181.896552 L191.447478,181.896552 C192.857394,181.896552 194,180.747367 194,179.329333 L194,151.27406 C193.99966,150.235899 193.377748,149.299881 192.423992,148.902585 Z M169.714185,176.762456 L188.894276,157.471936 L188.894276,176.762456 L169.714185,176.762456 Z" id="Shape" fill="#000000" fill-rule="nonzero"></path>
                <path d="M210.414404,107.311289 C209.454639,106.912158 208.349951,107.13264 207.615088,107.869525 L199.922266,115.587098 L199.922266,63.113295 C199.922266,61.6899314 198.772119,60.5364274 197.353662,60.5364274 L177.617969,60.5364274 L184.782031,53.3493156 C184.783057,53.3482869 184.784082,53.3469153 184.785107,53.3458866 L191.688037,46.4207478 C193.166992,44.9370344 193.981494,42.9633218 193.981494,40.8647949 C193.981494,38.766268 193.166992,36.7932412 191.688037,35.308842 L183.705713,27.3008359 C182.226758,25.8171225 180.259375,25 178.167578,25 C176.075781,25 174.10874,25.8171225 172.629443,27.3008359 L165.723096,34.2294037 L157.377783,42.601566 L139.500781,60.5360845 L59.7705078,60.5360845 L59.7705078,35.0434401 C59.7705078,33.6200765 58.6203613,32.4665725 57.2019043,32.4665725 C46.0627441,32.4672583 37,41.5584746 37,52.7341592 L37,162.181939 C37,162.372247 37.021875,162.557411 37.0608398,162.735717 C37.415625,167.477633 39.4605957,171.883511 42.8782227,175.228124 C46.5313477,178.802478 51.3537598,180.771047 56.4574707,180.771047 L134.947021,180.771047 L120.164648,195.60098 C119.430127,196.338208 119.210352,197.446106 119.607861,198.409303 C120.005371,199.372156 120.942236,200 121.980957,200 L209.431396,200 C210.849854,200 212,198.846496 212,197.423132 L212,109.69202 C212,108.649957 211.373828,107.710078 210.414404,107.311289 Z M176.262744,30.9454834 C177.312744,29.8914194 179.023438,29.8914194 180.073438,30.9454834 L188.056104,38.9538324 C189.106787,40.0075535 189.106787,41.723065 188.056104,42.777129 L182.966406,47.8835445 L171.172363,36.0518989 L176.262744,30.9454834 Z M167.539746,39.6962034 L179.333447,51.5275062 L174.62041,56.2557068 L162.827393,44.424404 L167.539746,39.6962034 Z M206.863477,138.646891 L202.124463,138.646891 C200.705664,138.646891 199.555859,139.800395 199.555859,141.223759 C199.555859,142.647122 200.705664,143.800626 202.124463,143.800626 L206.863477,143.800626 L206.863477,151.565862 L202.124463,151.565862 C200.705664,151.565862 199.555859,152.719366 199.555859,154.142729 C199.555859,155.566093 200.705664,156.719597 202.124463,156.719597 L206.863477,156.719597 L206.863477,164.484489 L202.124463,164.484489 C200.705664,164.484489 199.555859,165.637993 199.555859,167.061357 C199.555859,168.484721 200.705664,169.638225 202.124463,169.638225 L206.863477,169.638225 L206.863477,177.40346 L202.124463,177.40346 C200.705664,177.40346 199.555859,178.557307 199.555859,179.980328 C199.555859,181.403691 200.705664,182.557195 202.124463,182.557195 L206.863477,182.557195 L206.863477,194.847293 L128.181836,194.847293 L154.126953,168.819045 C155.130127,167.8123 155.130127,166.181141 154.126953,165.17474 C154.011768,165.059184 153.888037,164.959058 153.758496,164.869905 C152.758398,164.18274 151.382324,164.283895 150.493994,165.17474 L140.084229,175.617998 L56.4578125,175.617998 C48.6675781,175.617998 42.3962891,169.516496 42.1495117,161.715257 C42.164209,161.2256 42.2021484,160.740059 42.2629883,160.260004 C42.2633301,160.257261 42.2636719,160.254517 42.2640137,160.251774 C42.2927246,160.023748 42.3272461,159.796751 42.3665527,159.571125 C42.3709961,159.545407 42.3757812,159.51969 42.3802246,159.493973 C42.4161133,159.292693 42.4564453,159.092441 42.5005371,158.892875 C42.5128418,158.837326 42.5258301,158.781777 42.5388184,158.72657 C42.5777832,158.557865 42.6198242,158.390189 42.6649414,158.223198 C42.6895508,158.132674 42.7151855,158.043178 42.7415039,157.952996 C42.7791016,157.822009 42.8180664,157.691366 42.8594238,157.562094 C42.9007812,157.432822 42.944873,157.304921 42.9896484,157.177021 C43.020752,157.087525 43.0515137,156.998029 43.0850098,156.909219 C43.1475586,156.740514 43.2138672,156.573523 43.2822266,156.407904 C43.301709,156.360241 43.3208496,156.311893 43.3410156,156.26423 C43.4288574,156.058492 43.5201172,155.855155 43.6165039,155.654217 C43.6206055,155.645645 43.6243652,155.637072 43.6284668,155.6285 C45.6375488,151.457506 49.5015625,148.347777 54.1387207,147.382867 C54.151709,147.380123 54.1646973,147.377037 54.1776855,147.374294 C54.3902832,147.330746 54.6049316,147.293371 54.8209473,147.258738 C54.8568359,147.252909 54.8927246,147.245708 54.9292969,147.240222 C55.1244629,147.21039 55.3216797,147.187073 55.5188965,147.164784 C55.5742676,147.158612 55.6292969,147.15004 55.6850098,147.144553 C55.8753906,147.125351 56.0674805,147.112664 56.2595703,147.100663 C56.3204102,147.096891 56.38125,147.090376 56.4420898,147.08729 C56.6936523,147.074603 56.9472656,147.068087 57.2019043,147.068087 C58.6203613,147.068087 59.7705078,145.914583 59.7705078,144.49122 L59.7705078,125.80713 C59.7705078,124.383766 58.6203613,123.230262 57.2019043,123.230262 C55.7834473,123.230262 54.6333008,124.383766 54.6333008,125.80713 L54.6333008,142.076542 C50.2958984,142.626891 46.269873,144.567686 43.0952637,147.677758 C42.7613281,148.004881 42.4448242,148.345034 42.1365234,148.690674 L42.1365234,52.7341592 C42.1365234,45.2792452 47.5458008,39.0669883 54.632959,37.8401044 L54.632959,63.113295 L54.632959,115.500002 C54.632959,116.923366 55.7831055,118.077212 57.2015625,118.077212 C58.6200195,118.077212 59.770166,116.923366 59.770166,115.500345 L59.770166,65.6901626 L134.363916,65.6901626 L120.164307,79.9354571 C119.161133,80.9422014 119.161133,82.5733603 120.164307,83.5797617 C121.16748,84.5858201 122.79375,84.5858201 123.796582,83.5797617 L142.381104,64.9354473 C142.381787,64.9347615 142.382129,64.9340757 142.382812,64.9337328 L159.194092,48.0683657 L170.987109,59.9000114 L169.603516,61.2880566 C169.60249,61.2890853 169.601123,61.290114 169.600098,61.2911427 L117.808301,113.250258 L106.014941,101.418955 L116.22373,91.1773206 C117.226904,90.1705763 117.226904,88.5394174 116.22373,87.533016 C115.220557,86.5269575 113.594287,86.5269575 112.591455,87.533016 L100.566016,99.5968026 C100.501758,99.6612672 100.441602,99.7295036 100.385205,99.7994545 C100.366406,99.8227715 100.349658,99.8478029 100.331885,99.8721486 C100.295654,99.920497 100.260107,99.9691883 100.226953,100.019937 C100.208154,100.049426 100.191064,100.079601 100.173291,100.110119 C100.144922,100.158124 100.117578,100.206816 100.092627,100.256536 C100.076221,100.288768 100.061523,100.321343 100.046484,100.354947 C100.023584,100.405353 100.002393,100.456787 99.9829102,100.508222 C99.9760742,100.526395 99.9671875,100.54354 99.9606934,100.561714 L94.9564453,114.783348 L91.5446289,124.48012 C91.4995117,124.609049 91.467041,124.740035 91.4427734,124.872051 L82.9005859,124.872051 C81.4821289,124.872051 80.3319824,126.025555 80.3319824,127.448918 C80.3319824,128.872282 81.4821289,130.025786 82.9005859,130.025786 L154.033301,130.025786 C155.4521,130.025786 156.601904,128.872282 156.601904,127.448918 C156.601904,126.025555 155.4521,124.872051 154.033301,124.872051 L102.998584,124.872051 L118.663135,119.32467 C118.676123,119.31987 118.688428,119.313355 118.701416,119.308554 C118.762256,119.285923 118.82207,119.260548 118.881201,119.23346 C118.904785,119.222487 118.928369,119.2122 118.95127,119.200884 C119.012793,119.170024 119.073291,119.136077 119.132764,119.09973 C119.151904,119.088072 119.171729,119.077442 119.190527,119.06544 C119.252393,119.025664 119.312549,118.982116 119.37168,118.936168 C119.386377,118.924853 119.401758,118.914909 119.416113,118.90325 C119.487549,118.845644 119.557617,118.783579 119.623926,118.717057 L172.480762,65.6905055 L194.784717,65.6905055 L194.784717,120.741176 L158.04292,157.601527 C157.039746,158.608271 157.039746,160.23943 158.04292,161.245831 C158.105469,161.308581 158.170752,161.36756 158.238086,161.422766 C158.709082,161.807839 159.284326,162.000547 159.859229,162.000547 C160.434131,162.000547 161.009717,161.807839 161.480371,161.422766 C161.547705,161.367903 161.612988,161.308581 161.675537,161.245831 C161.676562,161.244803 161.675537,161.245831 161.676562,161.244803 L206.863477,115.912164 L206.863477,138.646891 Z M113.110303,115.825068 L105.752783,118.430739 L100.850732,113.512916 L103.448047,106.131725 L113.110303,115.825068 Z" id="Shape" fill="#000000" fill-rule="nonzero"></path>
                <path d="M175.128643,33.4627185 L186.164795,33.4410502 C187.821646,33.4377972 189.167426,34.7783032 189.170679,36.4351543 C189.17072,36.4560249 189.170543,36.4768953 189.170149,36.4977623 L189.037153,43.5311156 L172.232195,43.4729117 L172.134826,36.5046277 C172.111677,34.8479352 173.435926,33.4861546 175.092619,33.4630055 C175.104626,33.4628377 175.116635,33.462742 175.128643,33.4627185 Z" id="Rectangle" fill="#FFB1B1" transform="translate(180.660234, 38.483076) rotate(-315.000000) translate(-180.660234, -38.483076) "></path>
                <polygon id="Path-4" fill="#FFE66D" points="117.808301 113.250258 106.014941 101.418955 159.198651 48.1109489 170.987109 59.9000114"></polygon>
                <polygon id="Path-5" fill="#F6F6F6" points="174.62041 56.2557068 179.333447 51.5275062 167.539746 39.6962034 162.827393 44.424404"></polygon>
            </g>
        </g>
    </g>
</svg>
