<?xml version="1.0" encoding="UTF-8"?>
<svg width="175px" height="175px" viewBox="0 0 175 175" version="1.1" xmlns="http://www.w3.org/2000/svg" xmlns:xlink="http://www.w3.org/1999/xlink">
    <!-- Generator: Sketch 55.1 (78136) - https://sketchapp.com -->
    <title>sketch</title>
    <desc>Created with Sketch.</desc>
    <g id="Page-1" stroke="none" stroke-width="1" fill="none" fill-rule="evenodd">
        <g id="home-v3" transform="translate(-219.000000, -1874.000000)">
            <g id="sketch" transform="translate(219.000000, 1874.000000)">
                <path d="M155.423992,123.902585 C154.470235,123.504948 153.372463,123.724605 152.642201,124.45873 L124.74753,152.514004 C124.017607,153.248471 123.799208,154.352563 124.194568,155.311811 C124.58925,156.271401 125.520589,156.896552 126.552807,156.896552 L154.447478,156.896552 C155.857394,156.896552 157,155.747367 157,154.329333 L157,126.27406 C156.99966,125.235899 156.377748,124.299881 155.423992,123.902585 Z M132.714185,151.762456 L151.894276,132.471936 L151.894276,151.762456 L132.714185,151.762456 Z" id="Shape" fill="#FFFFFF" fill-rule="nonzero"></path>
                <path d="M173.414404,82.3112893 C172.454639,81.9121577 171.349951,82.1326402 170.615088,82.8695249 L162.922266,90.5870977 L162.922266,38.113295 C162.922266,36.6899314 161.772119,35.5364274 160.353662,35.5364274 L140.617969,35.5364274 L147.782031,28.3493156 C147.783057,28.3482869 147.784082,28.3469153 147.785107,28.3458866 L154.688037,21.4207478 C156.166992,19.9370344 156.981494,17.9633218 156.981494,15.8647949 C156.981494,13.766268 156.166992,11.7932412 154.688037,10.308842 L146.705713,2.30083588 C145.226758,0.81712249 143.259375,0 141.167578,0 C139.075781,0 137.10874,0.81712249 135.629443,2.30083588 L128.723096,9.22940367 L120.377783,17.601566 L102.500781,35.5360845 L22.7705078,35.5360845 L22.7705078,10.0434401 C22.7705078,8.6200765 21.6203613,7.46657248 20.2019043,7.46657248 C9.06274414,7.46725828 0,16.5584746 0,27.7341592 L0,137.181939 C0,137.372247 0.021875,137.557411 0.0608398437,137.735717 C0.415625,142.477633 2.4605957,146.883511 5.87822266,150.228124 C9.53134766,153.802478 14.3537598,155.771047 19.4574707,155.771047 L97.9470215,155.771047 L83.1646484,170.60098 C82.430127,171.338208 82.2103516,172.446106 82.6078613,173.409303 C83.0053711,174.372156 83.9422363,175 84.980957,175 L172.431396,175 C173.849854,175 175,173.846496 175,172.423132 L175,84.6920201 C175,83.6499575 174.373828,82.710078 173.414404,82.3112893 Z M139.262744,5.94548337 C140.312744,4.89141936 142.023438,4.89141936 143.073438,5.94548337 L151.056104,13.9538324 C152.106787,15.0075535 152.106787,16.723065 151.056104,17.777129 L145.966406,22.8835445 L134.172363,11.0518989 L139.262744,5.94548337 Z M130.539746,14.6962034 L142.333447,26.5275062 L137.62041,31.2557068 L125.827393,19.424404 L130.539746,14.6962034 Z M169.863477,113.646891 L165.124463,113.646891 C163.705664,113.646891 162.555859,114.800395 162.555859,116.223759 C162.555859,117.647122 163.705664,118.800626 165.124463,118.800626 L169.863477,118.800626 L169.863477,126.565862 L165.124463,126.565862 C163.705664,126.565862 162.555859,127.719366 162.555859,129.142729 C162.555859,130.566093 163.705664,131.719597 165.124463,131.719597 L169.863477,131.719597 L169.863477,139.484489 L165.124463,139.484489 C163.705664,139.484489 162.555859,140.637993 162.555859,142.061357 C162.555859,143.484721 163.705664,144.638225 165.124463,144.638225 L169.863477,144.638225 L169.863477,152.40346 L165.124463,152.40346 C163.705664,152.40346 162.555859,153.557307 162.555859,154.980328 C162.555859,156.403691 163.705664,157.557195 165.124463,157.557195 L169.863477,157.557195 L169.863477,169.847293 L91.1818359,169.847293 L117.126953,143.819045 C118.130127,142.8123 118.130127,141.181141 117.126953,140.17474 C117.011768,140.059184 116.888037,139.959058 116.758496,139.869905 C115.758398,139.18274 114.382324,139.283895 113.493994,140.17474 L103.084229,150.617998 L19.4578125,150.617998 C11.6675781,150.617998 5.39628906,144.516496 5.14951172,136.715257 C5.16420898,136.2256 5.20214844,135.740059 5.26298828,135.260004 C5.26333008,135.257261 5.26367187,135.254517 5.26401367,135.251774 C5.29272461,135.023748 5.32724609,134.796751 5.36655273,134.571125 C5.37099609,134.545407 5.37578125,134.51969 5.38022461,134.493973 C5.41611328,134.292693 5.45644531,134.092441 5.50053711,133.892875 C5.5128418,133.837326 5.52583008,133.781777 5.53881836,133.72657 C5.5777832,133.557865 5.61982422,133.390189 5.66494141,133.223198 C5.68955078,133.132674 5.71518555,133.043178 5.74150391,132.952996 C5.77910156,132.822009 5.81806641,132.691366 5.85942383,132.562094 C5.90078125,132.432822 5.94487305,132.304921 5.98964844,132.177021 C6.02075195,132.087525 6.05151367,131.998029 6.08500977,131.909219 C6.14755859,131.740514 6.21386719,131.573523 6.28222656,131.407904 C6.30170898,131.360241 6.32084961,131.311893 6.34101562,131.26423 C6.42885742,131.058492 6.52011719,130.855155 6.61650391,130.654217 C6.62060547,130.645645 6.62436523,130.637072 6.6284668,130.6285 C8.63754883,126.457506 12.5015625,123.347777 17.1387207,122.382867 C17.151709,122.380123 17.1646973,122.377037 17.1776855,122.374294 C17.3902832,122.330746 17.6049316,122.293371 17.8209473,122.258738 C17.8568359,122.252909 17.8927246,122.245708 17.9292969,122.240222 C18.1244629,122.21039 18.3216797,122.187073 18.5188965,122.164784 C18.5742676,122.158612 18.6292969,122.15004 18.6850098,122.144553 C18.8753906,122.125351 19.0674805,122.112664 19.2595703,122.100663 C19.3204102,122.096891 19.38125,122.090376 19.4420898,122.08729 C19.6936523,122.074603 19.9472656,122.068087 20.2019043,122.068087 C21.6203613,122.068087 22.7705078,120.914583 22.7705078,119.49122 L22.7705078,100.80713 C22.7705078,99.3837659 21.6203613,98.2302619 20.2019043,98.2302619 C18.7834473,98.2302619 17.6333008,99.3837659 17.6333008,100.80713 L17.6333008,117.076542 C13.2958984,117.626891 9.26987305,119.567686 6.09526367,122.677758 C5.76132812,123.004881 5.44482422,123.345034 5.13652344,123.690674 L5.13652344,27.7341592 C5.13652344,20.2792452 10.5458008,14.0669883 17.632959,12.8401044 L17.632959,38.113295 L17.632959,90.500002 C17.632959,91.9233656 18.7831055,93.0772125 20.2015625,93.0772125 C21.6200195,93.0772125 22.770166,91.9233656 22.770166,90.5003449 L22.770166,40.6901626 L97.363916,40.6901626 L83.1643066,54.9354571 C82.1611328,55.9422014 82.1611328,57.5733603 83.1643066,58.5797617 C84.1674805,59.5858201 85.79375,59.5858201 86.796582,58.5797617 L105.381104,39.9354473 C105.381787,39.9347615 105.382129,39.9340757 105.382812,39.9337328 L122.194092,23.0683657 L133.987109,34.9000114 L132.603516,36.2880566 C132.60249,36.2890853 132.601123,36.290114 132.600098,36.2911427 L80.8083008,88.2502577 L69.0149414,76.4189549 L79.2237305,66.1773206 C80.2269043,65.1705763 80.2269043,63.5394174 79.2237305,62.533016 C78.2205566,61.5269575 76.5942871,61.5269575 75.5914551,62.533016 L63.5660156,74.5968026 C63.5017578,74.6612672 63.4416016,74.7295036 63.3852051,74.7994545 C63.3664062,74.8227715 63.3496582,74.8478029 63.3318848,74.8721486 C63.2956543,74.920497 63.2601074,74.9691883 63.2269531,75.019937 C63.2081543,75.0494261 63.1910645,75.079601 63.173291,75.1101188 C63.1449219,75.1581243 63.1175781,75.2068156 63.092627,75.2565356 C63.0762207,75.2887679 63.0615234,75.3213431 63.0464844,75.3549469 C63.023584,75.4053527 63.0023926,75.4567872 62.9829102,75.5082217 C62.9760742,75.5263952 62.9671875,75.54354 62.9606934,75.5617135 L57.9564453,89.7833482 L54.5446289,99.4801198 C54.4995117,99.6090489 54.467041,99.7400354 54.4427734,99.8720506 L45.9005859,99.8720506 C44.4821289,99.8720506 43.3319824,101.025555 43.3319824,102.448918 C43.3319824,103.872282 44.4821289,105.025786 45.9005859,105.025786 L117.033301,105.025786 C118.4521,105.025786 119.601904,103.872282 119.601904,102.448918 C119.601904,101.025555 118.4521,99.8720506 117.033301,99.8720506 L65.998584,99.8720506 L81.6631348,94.3246701 C81.676123,94.3198696 81.6884277,94.3133545 81.701416,94.308554 C81.7622559,94.2859228 81.8220703,94.2605485 81.8812012,94.2334596 C81.9047852,94.222487 81.9283691,94.2122001 81.9512695,94.2008845 C82.012793,94.1700238 82.073291,94.136077 82.1327637,94.09973 C82.1519043,94.0880715 82.1717285,94.0774417 82.1905273,94.0654403 C82.2523926,94.0256643 82.3125488,93.9821165 82.3716797,93.9361683 C82.386377,93.9248528 82.4017578,93.9149088 82.4161133,93.9032503 C82.4875488,93.8456436 82.5576172,93.7835794 82.6239258,93.7170574 L135.480762,40.6905055 L157.784717,40.6905055 L157.784717,95.7411758 L121.04292,132.601527 C120.039746,133.608271 120.039746,135.23943 121.04292,136.245831 C121.105469,136.308581 121.170752,136.36756 121.238086,136.422766 C121.709082,136.807839 122.284326,137.000547 122.859229,137.000547 C123.434131,137.000547 124.009717,136.807839 124.480371,136.422766 C124.547705,136.367903 124.612988,136.308581 124.675537,136.245831 C124.676562,136.244803 124.675537,136.245831 124.676562,136.244803 L169.863477,90.9121636 L169.863477,113.646891 Z M76.1103027,90.8250679 L68.7527832,93.4307388 L63.8507324,88.5129164 L66.4480469,81.1317252 L76.1103027,90.8250679 Z" id="Shape" fill="#FFFFFF" fill-rule="nonzero"></path>
                <path d="M138.128643,8.46271847 L149.164795,8.4410502 C150.821646,8.43779716 152.167426,9.77830321 152.170679,11.4351543 C152.17072,11.4560249 152.170543,11.4768953 152.170149,11.4977623 L152.037153,18.5311156 L135.232195,18.4729117 L135.134826,11.5046277 C135.111677,9.8479352 136.435926,8.48615455 138.092619,8.46300551 C138.104626,8.46283773 138.116635,8.46274205 138.128643,8.46271847 Z" id="Rectangle" transform="translate(143.660234, 13.483076) rotate(-315.000000) translate(-143.660234, -13.483076) "></path>
                <polygon id="Path-4" points="80.8083008 88.2502577 69.0149414 76.4189549 122.198651 23.1109489 133.987109 34.9000114"></polygon>
                <polygon id="Path-5" points="137.62041 31.2557068 142.333447 26.5275062 130.539746 14.6962034 125.827393 19.424404"></polygon>
            </g>
        </g>
    </g>
</svg>