<?xml version="1.0" encoding="UTF-8"?>
<svg width="267px" height="264px" viewBox="0 0 267 264" version="1.1" xmlns="http://www.w3.org/2000/svg" xmlns:xlink="http://www.w3.org/1999/xlink">
    <!-- Generator: Sketch 55.1 (78136) - https://sketchapp.com -->
    <title>coding</title>
    <desc>Created with Sketch.</desc>
    <g id="Page-1" stroke="none" stroke-width="1" fill="none" fill-rule="evenodd" opacity="1">
        <g id="home-v3" transform="translate(-562.000000, -1073.000000)">
            <g id="coding" transform="translate(579.000000, 1091.000000)">
                <path d="M19.3141227,56.4288123 C43.3796993,25.3472525 40.7454595,-37.2845003 1.12922717,84.7463786 C0.750762233,85.9121737 0.76518359,82.2396898 1.12922717,81.0693112 C2.54364657,76.5220362 4.49448983,72.1548296 6.40291599,67.7917801 C10.557755,58.2929748 14.552569,48.704596 19.3141227,39.4949491 C23.2096614,31.960321 27.7224914,24.7507201 32.3359179,17.6329861 C35.0739937,13.4086 38.0363835,9.30651112 41.3419684,5.50972241 C42.9965627,3.60925854 47.6272836,-1.82584551 47.127129,0.643828656 C39.5778102,37.9210225 29.5873403,74.6702328 19.8878005,111.446588 C18.9078475,115.162136 19.5126462,103.537186 20.9314794,99.9661202 C28.985579,79.6947289 38.533714,60.0372893 48.1016902,40.4349513 C52.5816228,31.2567141 57.6249852,22.3427847 63.0449605,13.6863592 C63.5067675,12.9487915 65.1307392,11.9010497 65.4640838,12.7048863 C66.3342718,14.8032825 65.9811057,17.3078485 65.4640838,19.5199023 C62.9282295,30.3694335 59.7664115,41.073781 56.3543565,51.6804188 C47.0320227,80.6596172 36.480335,109.235618 27.2695825,138.250475 C25.7120637,143.156826 25.6312857,148.452461 24.0763398,153.359628 C23.5696902,154.958535 23.4661059,149.890161 24.0763398,148.327851 C27.0573427,140.69594 30.9302548,133.436615 34.699747,126.16177 C40.4024306,115.156007 46.8617372,104.55079 52.4837592,93.503605 C63.7090308,71.446123 73.8030019,48.8198548 85.2317771,26.8671254 C86.6071961,24.2251799 87.8712837,20.3741229 90.8095843,19.8862267 C92.8005637,19.5556303 91.3077962,23.9851662 90.8095843,25.9409467 C88.4093162,35.3634392 85.2140441,44.5677493 82.1698582,53.8023355 C64.1786309,108.379009 46.3043811,162.997197 27.7050247,217.36963 C27.2359855,218.740796 27.2512112,214.3984 27.7050247,213.02212 C30.3075839,205.12934 33.6257681,197.488644 36.7940166,189.805448 C44.9710144,169.975731 52.4877327,149.840594 61.7386339,130.488545 C72.8116659,107.324762 84.9985808,84.6880422 97.7075417,62.3798556 C104.536027,50.3937369 107.323242,32.3962624 120.295242,27.7034509 C129.502517,24.3725838 116.790041,46.9980787 114.15758,56.4288123 C107.132005,81.5977792 97.9958092,106.158809 91.3417914,131.428547 C86.336057,150.438655 72.0855258,187.882538 67.5998241,207.022027 C66.5177047,211.63919 60.2307787,224.317008 63.0449605,220.5 C66.8575171,215.328849 67.8312454,208.559769 70.7032137,202.812753 C89.322648,165.553919 120.967888,111.122891 139.116021,73.6322349 C143.84694,63.8590385 143.394877,45.0479557 152.72553,39.4949491 C159.803684,35.2824855 150.798043,59.8961886 148.778691,67.8816332 C135.28759,121.23162 118.646971,173.740469 104.45344,226.907888 C102.449405,234.414784 105.635524,209.932898 108.745696,202.812753 C135.492219,141.581694 166.350553,82.7489777 193.995561,21.9182903 C195.833248,17.8746029 197.318658,13.329629 200.617047,10.3548808 C202.001162,9.10657675 201.035271,14.1301619 200.617047,15.9465116 C198.879419,23.4930516 196.391028,30.8472058 194.189091,38.2715639 C176.694678,97.2581664 149.835116,154.215743 141.528233,215.178596 C138.099197,240.343722 167.45358,171.463995 179.114497,148.901529 C191.316444,125.292236 200.857233,100.36947 213.065165,76.7632717 C216.976201,69.2005908 221.037626,49.9032073 227.36564,55.5993986 C234.721702,62.2209936 225.128943,75.4135558 221.995186,84.8016729 C207.528678,128.140468 190.030748,170.411222 174.677134,213.443739 C173.665593,216.278845 170.209664,223.58198 172.935365,222.304642 C176.484427,220.641454 176.098397,215.09883 178.202142,211.791823 C184.757206,201.487515 192.343305,191.862291 198.868367,181.538958 C205.792462,170.584313 208.37423,156.052117 218.525472,147.996086 C223.210433,144.278098 219.135297,159.989245 218.525472,165.939069 C217.558839,175.370114 215.776938,184.712563 213.811637,193.987076 C211.631133,204.277162 198.878484,216.93584 206.09809,224.58553 C212.202233,231.053306 218.4505,211.765594 224.137838,204.928425 C226.949336,201.548515 229.068242,197.648016 231.533443,194.007811 C233.176911,191.581008 162.437138,145.721342 19.3141227,56.4288123 Z" id="Path-6-Copy-3" stroke="#4E9BE4" stroke-width="35"></path>
                <path d="M92.4693617,100.799648 L59.9383511,122.177171 C59.092766,122.73257 58.5744681,123.738204 58.5744681,124.823944 C58.5744681,125.909683 59.092766,126.915317 59.9379787,127.470716 L92.4689894,148.848239 C92.9169149,149.142782 93.4091489,149.282864 93.8954255,149.282864 C94.8471277,149.282864 95.775,148.74554 96.2970213,147.77811 C97.086383,146.31608 96.6518617,144.425176 95.3270745,143.554695 L66.8240426,124.823944 L95.3270745,106.093192 C96.652234,105.222711 97.0867553,103.331808 96.2973936,101.869777 C95.5080319,100.407746 93.7941489,99.9283451 92.4693617,100.799648 Z" id="Path" fill="#000000" fill-rule="nonzero"></path>
                <path d="M149.104574,149.282864 C149.590851,149.282864 150.083085,149.142782 150.531011,148.848239 L183.062021,127.470716 C183.907606,126.914906 184.425532,125.909683 184.425532,124.823944 C184.425532,123.738204 183.907234,122.73257 183.062021,122.177171 L150.531011,100.799648 C149.206223,99.9287559 147.491596,100.407746 146.702979,101.869777 C145.913617,103.331808 146.348138,105.222711 147.672926,106.093192 L176.175957,124.823944 L147.672926,143.554695 C146.347766,144.425176 145.913245,146.31608 146.702979,147.77811 C147.225372,148.745951 148.152872,149.282864 149.104574,149.282864 Z" id="Path" fill="#000000" fill-rule="nonzero"></path>
                <path d="M106.169628,144.48392 C105.309894,145.896244 105.650585,147.810563 106.931064,148.759507 C107.409149,149.113615 107.95016,149.282864 108.485585,149.282864 C109.384787,149.282864 110.267606,148.804284 110.806383,147.919014 L136.830372,105.163967 C137.690106,103.751643 137.349415,101.837324 136.068936,100.88838 C134.787713,99.9398474 133.052979,100.316549 132.193617,101.728873 L106.169628,144.48392 Z" id="Path" fill="#000000" fill-rule="nonzero"></path>
                <path d="M206.207447,25.2053991 L36.7925532,25.2053991 C35.2499468,25.2053991 34,26.5848592 34,28.286385 L34,196.713615 C34,198.415141 35.2499468,199.794601 36.7925532,199.794601 L206.207447,199.794601 C207.750053,199.794601 209,198.415141 209,196.713615 L209,163.849765 C209,162.148239 207.750053,160.768779 206.207447,160.768779 C204.66484,160.768779 203.414894,162.148239 203.414894,163.849765 L203.414894,193.632629 L39.5851064,193.632629 L39.5851064,56.0152582 L203.414894,56.0152582 L203.414894,151.525822 C203.414894,153.227347 204.66484,154.606808 206.207447,154.606808 C207.750053,154.606808 209,153.227347 209,151.525822 L209,28.286385 C209,26.5848592 207.750053,25.2053991 206.207447,25.2053991 Z M39.5851064,31.3673709 L142.909574,31.3673709 L142.909574,49.8532864 L39.5851064,49.8532864 L39.5851064,31.3673709 Z M148.494681,49.8532864 L148.494681,31.3673709 L203.414894,31.3673709 L203.414894,49.8532864 L148.494681,49.8532864 Z" id="Shape" fill="#000000" fill-rule="nonzero"></path>
                <path d="M176.047872,37.3239437 C174.405479,37.3239437 173.069149,38.7982981 173.069149,40.6103286 C173.069149,42.4223592 174.405479,43.8967136 176.047872,43.8967136 C177.690266,43.8967136 179.026596,42.4223592 179.026596,40.6103286 C179.026596,38.7982981 177.690266,37.3239437 176.047872,37.3239437 Z" id="Path" fill="#FFE66D" fill-rule="nonzero"></path>
                <path d="M160.781915,37.3239437 C159.139521,37.3239437 157.803191,38.7982981 157.803191,40.6103286 C157.803191,42.4223592 159.139521,43.8967136 160.781915,43.8967136 C162.424309,43.8967136 163.760638,42.4223592 163.760638,40.6103286 C163.760638,38.7982981 162.424309,37.3239437 160.781915,37.3239437 Z" id="Path" fill="#3DDC97" fill-rule="nonzero"></path>
                <path d="M191.31383,37.3239437 C189.671436,37.3239437 188.335106,38.7982981 188.335106,40.6103286 C188.335106,42.4223592 189.671436,43.8967136 191.31383,43.8967136 C192.956223,43.8967136 194.292553,42.4223592 194.292553,40.6103286 C194.292553,38.7982981 192.956223,37.3239437 191.31383,37.3239437 Z" id="Path" fill="#FC3B3B" fill-rule="nonzero"></path>
            </g>
        </g>
    </g>
</svg>
