<?xml version="1.0" encoding="UTF-8"?>
<svg width="267px" height="264px" viewBox="0 0 267 264" version="1.1" xmlns="http://www.w3.org/2000/svg" xmlns:xlink="http://www.w3.org/1999/xlink">
    <!-- Generator: Sketch 55.1 (78136) - https://sketchapp.com -->
    <title>database</title>
    <desc>Created with Sketch.</desc>
    <g id="Page-1" stroke="none" stroke-width="1" fill="none" fill-rule="evenodd" opacity="1">
        <g id="home-v3" transform="translate(-961.000000, -1070.000000)">
            <g id="database" transform="translate(979.000000, 1088.000000)">
                <path d="M18.4633625,56.4169817 C42.5289391,25.3354219 39.8946993,-37.2963309 0.278466948,84.734548 C-0.0999979887,85.9003431 -0.0855766317,82.2278592 0.278466948,81.0574806 C1.69288635,76.5102056 3.64372961,72.142999 5.55215577,67.7799495 C9.7069948,58.2811442 13.7018088,48.6927654 18.4633625,39.4831185 C22.3589012,31.9484904 26.8717312,24.7388895 31.4851577,17.6211555 C34.2232334,13.3967694 37.1856232,9.29468051 40.4912082,5.4978918 C42.1458025,3.59742793 46.7765234,-1.83767612 46.2763688,0.631998046 C38.72705,37.9091919 28.7365801,74.6584022 19.0370403,111.434758 C18.0570873,115.150305 18.661886,103.525356 20.0807192,99.9542895 C28.1348188,79.6828983 37.6829538,60.0254587 47.2509299,40.4231207 C51.7308626,31.2448835 56.774225,22.3309541 62.1942002,13.6745286 C62.6560073,12.9369609 64.279979,11.8892191 64.6133235,12.6930557 C65.4835115,14.7914519 65.1303455,17.2960179 64.6133235,19.5080717 C62.0774693,30.3576029 58.9156513,41.0619504 55.5035963,51.6685882 C46.1812625,80.6477866 35.6295747,109.223788 26.4188223,138.238644 C24.8613035,143.144995 24.7805255,148.44063 23.2255795,153.347797 C22.71893,154.946704 22.6153457,149.87833 23.2255795,148.31602 C26.2065825,140.68411 30.0794946,133.424784 33.8489868,126.149939 C39.5516704,115.144176 46.010977,104.538959 51.632999,93.4917744 C62.8582706,71.4342924 72.9522417,48.8080242 84.3810169,26.8552948 C85.7564359,24.2133493 87.0205235,20.3622923 89.9588241,19.8743961 C91.9498035,19.5437997 90.457036,23.9733355 89.9588241,25.9291161 C87.558556,35.3516086 84.3632839,44.5559187 81.319098,53.7905049 C63.3278707,108.367179 45.4536209,162.985367 26.8542645,217.3578 C26.3852253,218.728966 26.400451,214.38657 26.8542645,213.01029 C29.4568237,205.11751 32.7750079,197.476813 35.9432564,189.793618 C44.1202541,169.9639 51.6369725,149.828764 60.8878736,130.476714 C71.9609056,107.312931 84.1478206,84.6762116 96.8567814,62.368025 C103.685266,50.3819063 106.472482,32.3844318 119.444481,27.6916203 C128.651756,24.3607532 115.939281,46.9862481 113.30682,56.4169817 C106.281245,81.5859486 97.1450489,106.146978 90.4910312,131.416716 C85.4852968,150.426824 71.2347656,187.870707 66.7490638,207.010197 C65.6669444,211.627359 59.3800185,224.305178 62.1942002,220.488169 C66.0067569,215.317018 66.9804852,208.547938 69.8524535,202.800922 C88.4718877,165.542088 120.117128,111.11106 138.265261,73.6204043 C142.99618,63.8472079 142.544117,45.0361251 151.87477,39.4831185 C158.952924,35.2706549 149.947283,59.884358 147.92793,67.8698026 C134.436829,121.219789 117.796211,173.728638 103.60268,226.896058 C101.598645,234.402953 104.784764,209.921068 107.894936,202.800922 C134.641458,141.569863 165.499793,82.7371471 193.144801,21.9064596 C194.982488,17.8627723 196.467897,13.3177984 199.766287,10.3430502 C201.150402,9.09474614 200.184511,14.1183313 199.766287,15.934681 C198.028659,23.481221 195.540268,30.8353752 193.338331,38.2597333 C175.843918,97.2463358 148.984356,154.203912 140.677472,215.166765 C137.248437,240.331892 166.60282,171.452165 178.263737,148.889698 C190.465683,125.280405 200.006473,100.35764 212.214405,76.7514411 C216.125441,69.1887602 220.186866,49.8913767 226.514879,55.587568 C233.870942,62.209163 224.278183,75.4017252 221.144426,84.7898423 C206.677918,128.128638 189.179988,170.399391 173.826374,213.431908 C172.814833,216.267014 169.358904,223.57015 172.084605,222.292811 C175.633667,220.629624 175.247637,215.086999 177.351382,211.779993 C183.906445,201.475684 191.492545,191.85046 198.017607,181.527128 C204.941702,170.572483 207.52347,156.040286 217.674712,147.984255 C222.359673,144.266267 218.284537,159.977414 217.674712,165.927238 C216.708079,175.358283 214.926177,184.700732 212.960877,193.975245 C210.780373,204.265331 198.027723,216.924009 205.247329,224.573699 C211.351473,231.041476 217.59974,211.753764 223.287078,204.916594 C226.098576,201.536685 228.217481,197.636185 230.682683,193.99598 C232.326151,191.569177 161.586378,145.709511 18.4633625,56.4169817 Z" id="Path-6-Copy" stroke="#3DDC97" stroke-width="35"></path>
                <path d="M58.625,45.8645833 C51.38875,45.8645833 45.5,51.7533333 45.5,58.9895833 C45.5,66.2258333 51.38875,72.1145833 58.625,72.1145833 C65.86125,72.1145833 71.75,66.2258333 71.75,58.9895833 C71.75,51.7533333 65.86125,45.8645833 58.625,45.8645833 Z M58.625,66.28125 C54.6058333,66.28125 51.3333333,63.0116667 51.3333333,58.9895833 C51.3333333,54.9675 54.6058333,51.6979167 58.625,51.6979167 C62.6441667,51.6979167 65.9166667,54.9675 65.9166667,58.9895833 C65.9166667,63.0116667 62.6441667,66.28125 58.625,66.28125 Z" id="Shape" fill="#000000" fill-rule="nonzero"></path>
                <circle id="Oval" fill="#000000" fill-rule="nonzero" cx="173.833333" cy="54.6145833" r="2.91666667"></circle>
                <circle id="Oval" fill="#000000" fill-rule="nonzero" cx="162.166667" cy="54.6145833" r="2.91666667"></circle>
                <circle id="Oval" fill="#000000" fill-rule="nonzero" cx="179.666667" cy="63.3645833" r="2.91666667"></circle>
                <circle id="Oval" fill="#000000" fill-rule="nonzero" cx="168" cy="63.3645833" r="2.91666667"></circle>
                <circle id="Oval" fill="#000000" fill-rule="nonzero" cx="150.5" cy="54.6145833" r="2.91666667"></circle>
                <circle id="Oval" fill="#000000" fill-rule="nonzero" cx="156.333333" cy="63.3645833" r="2.91666667"></circle>
                <circle id="Oval" fill="#000000" fill-rule="nonzero" cx="138.833333" cy="54.6145833" r="2.91666667"></circle>
                <circle id="Oval" fill="#000000" fill-rule="nonzero" cx="144.666667" cy="63.3645833" r="2.91666667"></circle>
                <circle id="Oval" fill="#000000" fill-rule="nonzero" cx="127.166667" cy="54.6145833" r="2.91666667"></circle>
                <circle id="Oval" fill="#000000" fill-rule="nonzero" cx="133" cy="63.3645833" r="2.91666667"></circle>
                <path d="M58.625,101.28125 C51.38875,101.28125 45.5,107.17 45.5,114.40625 C45.5,121.6425 51.38875,127.53125 58.625,127.53125 C65.86125,127.53125 71.75,121.6425 71.75,114.40625 C71.75,107.17 65.86125,101.28125 58.625,101.28125 Z M58.625,121.697917 C54.6058333,121.697917 51.3333333,118.428333 51.3333333,114.40625 C51.3333333,110.384167 54.6058333,107.114583 58.625,107.114583 C62.6441667,107.114583 65.9166667,110.384167 65.9166667,114.40625 C65.9166667,118.428333 62.6441667,121.697917 58.625,121.697917 Z" id="Shape" fill="#000000" fill-rule="nonzero"></path>
                <path d="M58.625,156.697917 C51.38875,156.697917 45.5,162.586667 45.5,169.822917 C45.5,177.059167 51.38875,182.947917 58.625,182.947917 C65.86125,182.947917 71.75,177.059167 71.75,169.822917 C71.75,162.586667 65.86125,156.697917 58.625,156.697917 Z M58.625,177.114583 C54.6058333,177.114583 51.3333333,173.845 51.3333333,169.822917 C51.3333333,165.800833 54.6058333,162.53125 58.625,162.53125 C62.6441667,162.53125 65.9166667,165.800833 65.9166667,169.822917 C65.9166667,173.845 62.6441667,177.114583 58.625,177.114583 Z" id="Shape" fill="#000000" fill-rule="nonzero"></path>
                <path d="M203,76.1745833 L203,41.8045833 C203,34.3933333 196.97125,28.3645833 189.56,28.3645833 L41.44,28.3645833 C34.02875,28.3645833 28,34.3933333 28,41.8045833 L28,76.1716667 C28,80.45625 30.0504167,84.2333333 33.1829167,86.695 C30.0504167,89.1595833 28,92.9395833 28,97.22125 L28,131.588333 C28,135.872917 30.0504167,139.65 33.1829167,142.111667 C30.0504167,144.57625 28,148.35625 28,152.637917 L28,187.005 C28,194.41625 34.02875,200.445 41.44,200.445 L122.742083,200.445 C130.564583,201.885833 139.139583,202.6325 147.583333,202.6325 C172.876667,202.6325 199.546667,196.072917 202.69375,183.519583 C202.889167,183.131667 203,182.688333 203,182.21875 L203,155.96875 L203,154.875 L203,153.78125 L203,129.71875 L203,128.625 L203,127.53125 L203,102.375 L203,101.28125 C203,100.84375 202.892083,100.438333 202.72,100.067917 C201.707917,95.7979167 197.913333,92.2016667 192.330833,89.32 C198.415,88.0395833 203,82.635 203,76.1745833 Z M33.8333333,131.59125 L33.8333333,97.22125 C33.8333333,93.0270833 37.2458333,89.6145833 41.44,89.6145833 L102.281667,89.6145833 C97.0054167,92.4466667 93.42375,95.9408333 92.4466667,100.067917 C92.2745833,100.44125 92.1666667,100.84375 92.1666667,101.28125 L92.1666667,102.375 L92.1666667,127.53125 L92.1666667,128.625 L92.1666667,129.71875 L92.1666667,139.197917 L41.44,139.197917 C37.2458333,139.197917 33.8333333,135.785417 33.8333333,131.59125 Z M99.8258333,113.691667 C99.9570833,113.77625 100.097083,113.860833 100.23125,113.945417 C100.744583,114.26625 101.278333,114.58125 101.835417,114.890417 C101.995833,114.977917 102.150417,115.068333 102.310833,115.152917 C102.990417,115.5175 103.69625,115.873333 104.43125,116.214583 C104.547917,116.27 104.673333,116.3225 104.79,116.375 C105.434583,116.669583 106.096667,116.9525 106.779167,117.229583 C106.980417,117.31125 107.17875,117.392917 107.38,117.471667 C108.185,117.786667 109.004583,118.095833 109.853333,118.3875 C109.9,118.402083 109.946667,118.416667 109.993333,118.434167 C110.804167,118.71125 111.638333,118.976667 112.487083,119.233333 C112.714583,119.303333 112.945,119.370417 113.175417,119.4375 C114.015417,119.6825 114.867083,119.921667 115.739167,120.149167 C115.809167,120.166667 115.87625,120.187083 115.94625,120.204583 C116.885417,120.446667 117.845,120.67125 118.819167,120.89 C119.064167,120.945417 119.312083,120.997917 119.557083,121.050417 C120.39125,121.23125 121.234167,121.403333 122.085833,121.566667 C122.255,121.59875 122.424167,121.63375 122.593333,121.665833 C123.59375,121.8525 124.605833,122.024583 125.629583,122.187917 C125.871667,122.225833 126.119583,122.26375 126.361667,122.301667 C127.210417,122.432917 128.065,122.555417 128.928333,122.669167 C129.164583,122.70125 129.397917,122.733333 129.637083,122.7625 C130.68125,122.89375 131.73125,123.01625 132.79,123.127083 C133.002917,123.150417 133.21875,123.167917 133.431667,123.188333 C134.32125,123.275833 135.216667,123.354583 136.112083,123.4275 C136.383333,123.447917 136.651667,123.47125 136.922917,123.491667 C137.993333,123.570417 139.069583,123.640417 140.145833,123.695833 C140.2975,123.704583 140.452083,123.7075 140.606667,123.71625 C141.554583,123.762917 142.505417,123.797917 143.45625,123.824167 C143.742083,123.832917 144.027917,123.841667 144.316667,123.8475 C145.404583,123.870833 146.4925,123.888333 147.5775,123.888333 C148.6625,123.888333 149.750417,123.870833 150.838333,123.8475 C151.124167,123.841667 151.41,123.832917 151.69875,123.824167 C152.649583,123.797917 153.5975,123.762917 154.548333,123.71625 C154.702917,123.7075 154.854583,123.704583 155.009167,123.695833 C156.085417,123.640417 157.161667,123.570417 158.232083,123.491667 C158.503333,123.47125 158.771667,123.450833 159.042917,123.4275 C159.94125,123.3575 160.83375,123.275833 161.723333,123.188333 C161.93625,123.167917 162.152083,123.1475 162.365,123.127083 C163.42375,123.01625 164.47375,122.896667 165.517917,122.7625 C165.754167,122.733333 165.990417,122.70125 166.226667,122.669167 C167.087083,122.555417 167.944583,122.432917 168.793333,122.301667 C169.038333,122.26375 169.283333,122.22875 169.525417,122.187917 C170.549167,122.024583 171.56125,121.8525 172.561667,121.665833 C172.73375,121.63375 172.9,121.59875 173.069167,121.566667 C173.92375,121.403333 174.766667,121.23125 175.597917,121.050417 C175.845833,120.995 176.090833,120.9425 176.335833,120.89 C177.307083,120.67125 178.269583,120.446667 179.20875,120.204583 C179.27875,120.187083 179.345833,120.166667 179.415833,120.149167 C180.287917,119.924583 181.139583,119.685417 181.979583,119.4375 C182.21,119.370417 182.440417,119.303333 182.667917,119.233333 C183.516667,118.976667 184.350833,118.71125 185.161667,118.434167 C185.208333,118.419583 185.255,118.405 185.301667,118.3875 C186.150417,118.092917 186.972917,117.786667 187.775,117.471667 C187.979167,117.392917 188.1775,117.31125 188.375833,117.229583 C189.058333,116.9525 189.720417,116.669583 190.365,116.375 C190.484583,116.319583 190.607083,116.27 190.72375,116.214583 C191.45875,115.873333 192.161667,115.5175 192.844167,115.152917 C193.0075,115.065417 193.162083,114.977917 193.319583,114.890417 C193.87375,114.584167 194.4075,114.269167 194.92375,113.945417 C195.057917,113.860833 195.197917,113.779167 195.329167,113.691667 C195.932917,113.300833 196.504583,112.898333 197.047083,112.484167 C197.082083,112.457917 197.122917,112.434583 197.157917,112.408333 L197.157917,126.956667 C197.087917,127.295 197.04125,127.639167 197.096667,127.98625 C197.1375,128.199167 197.166667,128.409167 197.166667,128.625 C197.166667,128.945833 197.07625,129.2725 196.9975,129.59625 C196.93625,129.847083 196.8575,130.100833 196.7525,130.351667 C196.659167,130.570417 196.5425,130.792083 196.414167,131.010833 C196.28875,131.229583 196.151667,131.45125 195.994167,131.67 C195.769583,131.973333 195.515833,132.276667 195.227083,132.58 C195.119167,132.696667 195.01125,132.813333 194.894583,132.93 C188.72,138.903333 170.499583,144.299167 147.58625,144.299167 C124.6875,144.299167 106.475833,138.909167 100.289583,132.93875 C100.16125,132.810417 100.044583,132.685 99.9279167,132.556667 C99.65375,132.265 99.4058333,131.973333 99.19,131.681667 C99.02375,131.45125 98.8779167,131.220833 98.7466667,130.9875 C98.6270833,130.780417 98.51625,130.573333 98.4258333,130.363333 C98.3120833,130.097917 98.2333333,129.835417 98.1691667,129.572917 C98.0904167,129.257917 98,128.94 98,128.625 C98,128.417917 98.02625,128.210833 98.06125,128.006667 C98.1225,127.6275 98.0845833,127.248333 98,126.88375 L98,112.405417 C98.035,112.431667 98.0758333,112.455 98.1108333,112.48125 C98.6504167,112.895417 99.2220833,113.297917 99.8258333,113.691667 Z M196.749583,156.601667 C196.65625,156.820417 196.539583,157.042083 196.41125,157.260833 C196.285833,157.479583 196.14875,157.70125 195.99125,157.92 C195.766667,158.223333 195.512917,158.526667 195.224167,158.83 C195.11625,158.946667 195.008333,159.063333 194.891667,159.18 C188.717083,165.153333 170.496667,170.549167 147.583333,170.549167 C124.684583,170.549167 106.472917,165.159167 100.286667,159.18875 C100.158333,159.060417 100.041667,158.935 99.925,158.806667 C99.6508333,158.515 99.4029167,158.223333 99.1870833,157.931667 C99.0208333,157.70125 98.875,157.470833 98.74375,157.2375 C98.6241667,157.030417 98.5133333,156.823333 98.4229167,156.613333 C98.3091667,156.347917 98.2304167,156.085417 98.16625,155.822917 C98.0991667,155.54875 98.0291667,155.271667 98.0204167,154.9975 L98.0204167,154.6475 C98.0320833,154.51625 98.0379167,154.385 98.0583333,154.25375 C98.0991667,154.002917 98.04375,153.757917 98.0175,153.51 L98,139.197917 L98,138.655417 C98.1166667,138.745833 98.25375,138.830417 98.37625,138.917917 C98.74375,139.192083 99.12875,139.460417 99.5225,139.725833 C99.8433333,139.93875 100.175833,140.14875 100.514167,140.35875 C101.03625,140.679583 101.56125,140.9975 102.12125,141.30375 C102.127083,141.306667 102.132917,141.309583 102.135833,141.3125 C108.22,144.62875 116.585,147.023333 125.83375,148.472917 C125.90375,148.484583 125.97375,148.493333 126.04375,148.505 C129.0275,148.96875 132.09,149.330417 135.205,149.595833 C135.867083,149.65125 136.52625,149.709583 137.194167,149.75625 C137.844583,149.802917 138.495,149.84375 139.148333,149.87875 C140.029167,149.928333 140.91,149.972083 141.790833,150.007083 C142.304167,150.0275 142.8175,150.050833 143.33375,150.065417 C144.754167,150.10625 146.171667,150.135417 147.58625,150.135417 C148.997917,150.135417 150.415417,150.109167 151.83,150.068333 C152.349167,150.05375 152.865417,150.030417 153.384583,150.01 C154.259583,149.975 155.131667,149.934167 156.00375,149.884583 C156.662917,149.846667 157.319167,149.805833 157.975417,149.759167 C158.631667,149.7125 159.279167,149.657083 159.9325,149.601667 C163.076667,149.33625 166.168333,148.96875 169.178333,148.502083 C169.222083,148.49625 169.26875,148.4875 169.3125,148.481667 C179.41875,146.900833 188.4575,144.185417 194.632083,140.37625 C194.9675,140.169167 195.3,139.962083 195.617917,139.749167 C196.011667,139.486667 196.396667,139.218333 196.76125,138.944167 C196.8925,138.847917 197.04125,138.7575 197.169583,138.658333 L197.169583,153.206667 C197.099583,153.545 197.052917,153.889167 197.108333,154.23625 C197.1375,154.449167 197.166667,154.659167 197.166667,154.875 C197.166667,155.195833 197.07625,155.5225 196.9975,155.84625 C196.933333,156.097083 196.8575,156.350833 196.749583,156.601667 Z M41.44,194.614583 C37.2458333,194.614583 33.8333333,191.202083 33.8333333,187.007917 L33.8333333,152.637917 C33.8333333,148.44375 37.2458333,145.03125 41.44,145.03125 L92.1666667,145.03125 L92.1666667,153.78125 L92.1666667,154.875 L92.1666667,155.96875 L92.1666667,182.21875 L92.1666667,185.135417 L93.03,185.135417 C93.0766667,185.243333 93.14375,185.348333 93.19625,185.45625 C93.2983333,185.675 93.4120833,185.887917 93.52875,186.10375 C93.7679167,186.535417 94.0391667,186.96125 94.3395833,187.38125 C94.6370833,187.804167 94.9725,188.2125 95.3283333,188.617917 C95.5091667,188.822083 95.69,189.023333 95.8854167,189.224583 C97.0025,190.376667 98.3441667,191.455833 99.8929167,192.465 C99.9454167,192.5 100.000833,192.535 100.05625,192.57 C101.17625,193.290417 102.386667,193.972917 103.69625,194.6175 L41.44,194.6175 L41.44,194.614583 Z M197.166667,181.472083 C197.143333,181.5625 197.122917,181.655833 197.108333,181.74625 C195.915417,189.0175 175.729167,196.802083 147.583333,196.802083 C138.602917,196.802083 130.447917,196.005833 123.445,194.690417 L123.447917,194.667083 C108.943333,191.9225 100.916667,187.287917 98.6708333,183.379583 C98.6679167,183.376667 98.665,183.37375 98.665,183.367917 C98.5629167,183.187083 98.49,183.009167 98.41125,182.834167 C98.2595833,182.469583 98.1166667,182.107917 98.0583333,181.74625 L98.035,164.931667 C98.14,165.013333 98.2654167,165.089167 98.3733333,165.170833 C98.7408333,165.445 99.1258333,165.713333 99.5195833,165.97875 C99.8404167,166.191667 100.172917,166.401667 100.51125,166.611667 C101.033333,166.9325 101.558333,167.250417 102.118333,167.556667 C102.124167,167.559583 102.13,167.5625 102.132917,167.565417 C108.217083,170.881667 116.582083,173.27625 125.830833,174.725833 C125.900833,174.7375 125.970833,174.74625 126.040833,174.757917 C129.024583,175.221667 132.087083,175.583333 135.202083,175.84875 C135.864167,175.904167 136.523333,175.9625 137.19125,176.009167 C137.841667,176.055833 138.492083,176.096667 139.145417,176.131667 C140.02625,176.18125 140.907083,176.225 141.787917,176.26 C142.30125,176.280417 142.814583,176.30375 143.330833,176.318333 C144.75125,176.359167 146.16875,176.388333 147.583333,176.388333 C148.995,176.388333 150.4125,176.362083 151.827083,176.32125 C152.34625,176.306667 152.8625,176.283333 153.381667,176.262917 C154.256667,176.227917 155.12875,176.187083 156.000833,176.1375 C156.66,176.099583 157.31625,176.05875 157.9725,176.012083 C158.62875,175.965417 159.27625,175.91 159.929583,175.854583 C163.07375,175.589167 166.165417,175.221667 169.175417,174.755 C169.219167,174.749167 169.265833,174.740417 169.309583,174.734583 C179.415833,173.15375 188.454583,170.438333 194.629167,166.629167 C194.964583,166.422083 195.297083,166.215 195.615,166.002083 C196.00875,165.739583 196.39375,165.47125 196.758333,165.197083 C196.889583,165.100833 197.038333,165.010417 197.166667,164.91125 L197.166667,181.472083 L197.166667,181.472083 Z M197.166667,102.375 C197.166667,109.774583 175.959583,118.052083 147.583333,118.052083 C119.204167,118.052083 98,109.774583 98,102.375 C98,102.001667 98.0904167,101.6225 98.1983333,101.243333 C98.315,100.867083 98.4725,100.482083 98.7058333,100.085417 C98.7145833,100.067917 98.7233333,100.050417 98.7320833,100.032917 C99.7033333,98.41125 101.660417,96.6670833 104.673333,94.9841667 C104.801667,94.9141667 104.932917,94.8441667 105.064167,94.7741667 C105.580417,94.4941667 106.125833,94.2170833 106.700417,93.9429167 C107.368333,93.6308333 108.05375,93.31875 108.78875,93.0183333 C108.931667,92.9570833 109.080417,92.89875 109.229167,92.8404167 C112.618333,91.49 116.701667,90.29125 121.298333,89.31125 C122.73625,89.0079167 124.200417,88.7220833 125.705417,88.47125 C126.105,88.4041667 126.495833,88.3341667 126.90125,88.27 C139.959167,86.2575 155.192917,86.2575 168.250833,88.27 C168.662083,88.3341667 169.05875,88.4070833 169.464167,88.4741667 C170.960417,88.7220833 172.415833,89.005 173.842083,89.3083333 C188.060833,92.3358333 197.166667,97.53625 197.166667,102.375 Z M197.166667,76.1745833 C197.166667,80.36875 193.754167,83.78125 189.56,83.78125 L176.055833,83.78125 C175.886667,83.7433333 175.7,83.72 175.530833,83.6820833 C173.6175,83.2679167 171.64875,82.8975 169.63625,82.5766667 C169.440833,82.5475 169.245417,82.5154167 169.05,82.48625 C162.16375,81.4158333 154.81375,80.8645833 147.583333,80.8645833 C140.352917,80.8645833 133.00875,81.4158333 126.1225,82.48625 C125.92125,82.5154167 125.722917,82.5475 125.521667,82.5766667 C123.515,82.8975 121.552083,83.2679167 119.644583,83.6791667 C119.4725,83.7170833 119.28,83.7404167 119.107917,83.7783333 L41.44,83.7783333 C37.2458333,83.78125 33.8333333,80.36875 33.8333333,76.1745833 L33.8333333,41.8045833 C33.8333333,37.6104167 37.2458333,34.1979167 41.44,34.1979167 L189.557083,34.1979167 C193.754167,34.1979167 197.166667,37.6104167 197.166667,41.8045833 L197.166667,76.1745833 Z" id="Shape" fill="#000000" fill-rule="nonzero"></path>
            </g>
        </g>
    </g>
</svg>
